<svg xmlns="http://www.w3.org/2000/svg" viewBox="0 0 320 240">
  <rect width="320" height="240" fill="#F7F3EA"/>
  <path d="M0 198 H320" stroke="#E4DCC9" stroke-width="1"/>
  <path d="M40 198 C78 152 150 140 202 152 C240 161 260 180 264 198 Z" fill="#E4D7BC"/>
  <g fill="#FBF6E9" stroke="#DBCDAF" stroke-width="1.2">
    <ellipse cx="86" cy="182" rx="19" ry="6" transform="rotate(-18 86 182)"/>
    <ellipse cx="120" cy="176" rx="19" ry="6" transform="rotate(-6 120 176)"/>
    <ellipse cx="154" cy="184" rx="19" ry="6" transform="rotate(10 154 184)"/>
    <ellipse cx="190" cy="176" rx="19" ry="6" transform="rotate(-12 190 176)"/>
    <ellipse cx="224" cy="184" rx="18" ry="5.8" transform="rotate(14 224 184)"/>
    <ellipse cx="104" cy="164" rx="18" ry="5.6" transform="rotate(-14 104 164)"/>
    <ellipse cx="140" cy="158" rx="18" ry="5.6" transform="rotate(4 140 158)"/>
    <ellipse cx="176" cy="164" rx="18" ry="5.6" transform="rotate(-8 176 164)"/>
    <ellipse cx="210" cy="160" rx="17" ry="5.4" transform="rotate(16 210 160)"/>
    <ellipse cx="128" cy="142" rx="17" ry="5.2" transform="rotate(-4 128 142)"/>
    <ellipse cx="164" cy="144" rx="17" ry="5.2" transform="rotate(10 164 144)"/>
  </g>
  <g fill="none" stroke="#EFE6D2" stroke-width="1.4" stroke-linecap="round">
    <path d="M240 120 C252 104 250 92 240 82"/>
    <path d="M258 128 C270 110 268 96 258 84"/>
  </g>
  <path d="M56 132 C74 112 106 106 128 116 C140 122 136 136 122 140 C106 144 88 144 74 140 C62 137 52 140 56 132 Z" fill="#1D6A4C" opacity="0.85"/>
</svg>
